<svg width="712" height="802" viewBox="0 0 712 802" fill="none" xmlns="http://www.w3.org/2000/svg">
    <path fill-rule="evenodd" clip-rule="evenodd" d="M1 214L356 1L711 213.5V589L357 800.5L1.5 588.5L1 214ZM356 56L49 239.5V563L356 746L663 562.228V240L356 56Z" fill="#00ACDB"/>
    <path fill-rule="evenodd" clip-rule="evenodd" d="M1 214L356 1L711 213.5V589L357 800.5L1.5 588.5L1 214ZM356 56L49 239.5V563L356 746L663 562.228V240L356 56Z" stroke="#1589A9"/>
    <path d="M49 239.5L356 56L663 240V562.228L356 746L49 563V239.5Z" stroke="#1589A9"/>
</svg>
